<svg width="512" height="512" viewBox="0 0 512 512" fill="none" xmlns="http://www.w3.org/2000/svg">
<g clip-path="url(#clip0_503_36)">
<path d="M149.333 111.667C149.333 108.905 151.572 106.667 154.333 106.667H443C445.761 106.667 448 108.905 448 111.667V144.333C448 147.095 445.761 149.333 443 149.333H154.333C151.572 149.333 149.333 147.095 149.333 144.333V111.667Z" fill="black"/>
<path d="M149 240C149 237.239 151.239 235 154 235H442.667C445.428 235 447.667 237.239 447.667 240V272.667C447.667 275.428 445.428 277.667 442.667 277.667H154C151.239 277.667 149 275.428 149 272.667V240Z" fill="black"/>
<path d="M150 368C150 365.239 152.239 363 155 363H443.667C446.428 363 448.667 365.239 448.667 368V400.667C448.667 403.428 446.428 405.667 443.667 405.667H155C152.239 405.667 150 403.428 150 400.667V368Z" fill="black"/>
<path d="M85 416C102.673 416 117 401.673 117 384C117 366.327 102.673 352 85 352C67.3269 352 53 366.327 53 384C53 401.673 67.3269 416 85 416Z" fill="black"/>
<path d="M126.375 199.375L68.8751 262.5L54.5001 243.75C52.6251 241.25 48.2501 240.625 45.7501 242.5C43.2501 244.375 42.6251 248.75 44.5001 251.25L63.2501 276.25C64.5001 277.5 66.3751 278.75 68.2501 278.75C70.1251 278.75 71.3751 278.125 72.6251 276.875L135.125 208.125C137.625 205.625 137 201.875 134.5 199.375C132.625 196.875 128.25 196.875 126.375 199.375V199.375Z" fill="black"/>
<path d="M124.375 71.375L66.8751 134.5L52.5001 115.75C50.6251 113.25 46.2501 112.625 43.7501 114.5C41.2501 116.375 40.6251 120.75 42.5001 123.25L61.2501 148.25C62.5001 149.5 64.3751 150.75 66.2501 150.75C68.1251 150.75 69.3751 150.125 70.6251 148.875L133.125 80.125C135.625 77.625 135 73.875 132.5 71.375C130.625 68.875 126.25 68.875 124.375 71.375V71.375Z" fill="black"/>
</g>
<defs>
<clipPath id="clip0_503_36">
<rect width="512" height="512" fill="white"/>
</clipPath>
</defs>
</svg>
