<svg width="730" height="512" viewBox="0 0 730 512" fill="none" xmlns="http://www.w3.org/2000/svg">
<path d="M232.776 397.848C225.22 397.857 217.924 395.181 212.276 390.329L56 256.084L220.963 114.372C227.097 109.191 235.102 106.563 243.233 107.059C251.364 107.556 258.962 111.137 264.373 117.023C269.784 122.908 272.569 130.622 272.122 138.483C271.674 146.344 268.03 153.716 261.983 158.992L148.982 256.084L253.314 345.676C257.992 349.698 261.296 354.999 262.787 360.877C264.279 366.754 263.887 372.931 261.664 378.588C259.441 384.245 255.492 389.117 250.34 392.557C245.188 395.997 239.076 397.843 232.814 397.851L232.776 397.848ZM509.037 397.792L674 256.08L517.727 121.835C511.584 116.718 503.604 114.142 495.512 114.664C487.42 115.185 479.864 118.762 474.479 124.622C469.093 130.482 466.309 138.154 466.729 145.981C467.148 153.808 470.737 161.161 476.72 166.452L581.052 256.08L468.041 353.135C461.972 358.405 458.306 365.78 457.845 373.652C457.384 381.524 460.164 389.252 465.579 395.15C470.994 401.048 478.603 404.636 486.746 405.131C494.889 405.626 502.904 402.987 509.041 397.792H509.037ZM364.578 440.078L426.346 81.9317C427.042 78.0561 426.938 74.0859 426.039 70.2494C425.141 66.4129 423.466 62.786 421.112 59.5773C418.758 56.3686 415.77 53.6416 412.321 51.553C408.871 49.4644 405.029 48.0556 401.014 47.4076C396.999 46.7596 392.891 46.8852 388.927 47.7773C384.962 48.6693 381.22 50.3101 377.914 52.6052C374.608 54.9003 371.805 57.8045 369.665 61.1507C367.526 64.4968 366.092 68.2188 365.446 72.1024L303.674 430.249C303.005 434.116 303.131 438.072 304.045 441.892C304.958 445.712 306.642 449.32 308.999 452.511C311.357 455.702 314.342 458.413 317.784 460.488C321.225 462.564 325.057 463.964 329.059 464.608C330.749 464.868 332.457 464.999 334.168 465C341.469 464.99 348.531 462.482 354.1 457.92C359.669 453.357 363.386 447.036 364.591 440.078H364.578Z" fill="black"/>
</svg>
