<svg width="512" height="512" viewBox="0 0 512 512" fill="none" xmlns="http://www.w3.org/2000/svg">
<path d="M286.171 256L420.416 121.749C422.454 119.781 424.079 117.427 425.197 114.825C426.315 112.222 426.903 109.423 426.928 106.59C426.953 103.757 426.413 100.948 425.34 98.3263C424.268 95.7045 422.684 93.3226 420.68 91.3196C418.677 89.3165 416.296 87.7324 413.674 86.6598C411.052 85.5871 408.243 85.0474 405.41 85.072C402.578 85.0966 399.778 85.6851 397.175 86.8032C394.573 87.9212 392.219 89.5464 390.251 91.584L256 225.829L121.755 91.584C117.739 87.6568 112.337 85.4715 106.721 85.5025C101.104 85.5334 95.7264 87.778 91.7546 91.7492C87.7827 95.7204 85.5371 101.098 85.5052 106.714C85.4733 112.331 87.6576 117.733 91.584 121.749L225.835 256L91.584 390.251C89.5668 392.224 87.961 394.577 86.8596 397.175C85.7582 399.773 85.1831 402.563 85.1676 405.385C85.152 408.206 85.6964 411.003 86.7691 413.613C87.8418 416.222 89.4216 418.593 91.417 420.588C93.4123 422.583 95.7836 424.163 98.3936 425.235C101.004 426.307 103.8 426.851 106.622 426.835C109.443 426.819 112.234 426.243 114.831 425.142C117.429 424.04 119.782 422.434 121.755 420.416L256 286.171L390.251 420.416C394.416 424.581 399.877 426.667 405.333 426.667C410.789 426.667 416.256 424.581 420.416 420.416C424.415 416.415 426.662 410.99 426.662 405.333C426.662 399.676 424.415 394.251 420.416 390.251L286.171 256Z" fill="black"/>
</svg>
