<svg width="512" height="512" viewBox="0 0 512 512" fill="none" xmlns="http://www.w3.org/2000/svg">
<path d="M213.333 374.4L175.573 411.093C165.672 420.995 152.243 426.557 138.24 426.557C124.237 426.557 110.808 420.995 100.907 411.093C91.0053 401.192 85.4427 387.763 85.4427 373.76C85.4427 359.757 91.0053 346.328 100.907 336.427L197.76 239.36C207.266 229.823 220.075 224.305 233.536 223.947C246.997 223.59 260.081 228.421 270.08 237.44L272.64 239.573C276.685 243.534 282.139 245.725 287.8 245.665C293.461 245.605 298.866 243.299 302.827 239.253C306.787 235.208 308.979 229.755 308.919 224.094C308.859 218.433 306.552 213.027 302.507 209.067C301.303 207.51 300.021 206.015 298.667 204.587C280.456 188.743 256.903 180.413 232.78 181.284C208.657 182.156 185.767 192.163 168.747 209.28L70.6133 306.347C53.9383 324.497 44.9199 348.388 45.4416 373.029C45.9633 397.671 55.9847 421.159 73.413 438.587C90.8413 456.015 114.329 466.037 138.971 466.558C163.612 467.08 187.503 458.062 205.653 441.387L242.56 405.333C246.204 401.358 248.207 396.15 248.167 390.757C248.126 385.364 246.044 380.187 242.341 376.267C238.637 372.347 233.586 369.975 228.204 369.629C222.822 369.282 217.509 370.987 213.333 374.4V374.4ZM441.387 70.6133C423.441 52.7788 399.167 42.7688 373.867 42.7688C348.566 42.7688 324.293 52.7788 306.347 70.6133L269.44 106.667C265.796 110.642 263.793 115.85 263.833 121.243C263.874 126.636 265.956 131.813 269.66 135.733C273.363 139.653 278.414 142.025 283.796 142.371C289.178 142.718 294.491 141.013 298.667 137.6L335.573 100.907C345.475 91.0052 358.904 85.4427 372.907 85.4427C386.909 85.4427 400.339 91.0052 410.24 100.907C420.141 110.808 425.704 124.237 425.704 138.24C425.704 152.243 420.141 165.672 410.24 175.573L313.387 272.64C303.88 282.177 291.072 287.695 277.61 288.053C264.149 288.41 251.066 283.579 241.067 274.56L238.507 272.427C234.461 268.466 229.008 266.275 223.347 266.335C217.686 266.395 212.281 268.701 208.32 272.747C204.359 276.792 202.168 282.245 202.228 287.906C202.288 293.567 204.595 298.973 208.64 302.933C210.19 304.518 211.828 306.014 213.547 307.413C231.78 323.21 255.322 331.508 279.43 330.637C303.539 329.766 326.421 319.791 343.467 302.72L440.533 205.653C458.482 187.82 468.645 163.61 468.805 138.309C468.965 113.008 459.108 88.6718 441.387 70.6133V70.6133Z" fill="black"/>
</svg>
