<svg width="512" height="512" viewBox="0 0 512 512" fill="none" xmlns="http://www.w3.org/2000/svg">
<path d="M368 224C394.5 224 416 202.5 416 176C416 149.5 394.5 128 368 128C341.5 128 320 149.5 320 176C320 202.5 341.5 224 368 224Z" fill="black"/>
<path d="M452 64H60C44.4 64 32 76.7 32 92.3V419.7C32 435.3 44.4 448 60 448H452C467.6 448 480 435.3 480 419.7V92.3C480 76.7 467.6 64 452 64ZM348.9 261.7C345.9 258.2 341.3 255.5 336.1 255.5C331 255.5 327.4 257.9 323.3 261.2L304.6 277C300.7 279.8 297.6 281.7 293.1 281.7C288.8 281.7 284.9 280.1 282.1 277.6C281.1 276.7 279.3 275 277.8 273.5L224 215.3C220 210.7 214 207.8 207.3 207.8C200.6 207.8 194.4 211.1 190.5 215.6L64 368.2V107.7C65 100.9 70.3 96 77.1 96H434.8C441.7 96 447.3 101.1 447.7 108L448 368.4L348.9 261.7Z" fill="black"/>
</svg>
