<svg width="512" height="512" viewBox="0 0 512 512" fill="none" xmlns="http://www.w3.org/2000/svg">
<path d="M334.47 245.983C355.061 225.948 367.861 197.565 367.861 166.957C367.861 105.739 317.774 55.6522 256.557 55.6522H139.13C126.887 55.6522 116.87 65.6696 116.87 77.9131V434.087C116.87 446.33 126.887 456.348 139.13 456.348H283.826C345.044 456.348 395.131 406.261 395.131 345.044C395.131 302.191 370.644 264.904 334.47 245.983ZM161.391 100.174H256.557C293.287 100.174 323.339 130.226 323.339 166.957C323.339 203.687 293.287 233.739 256.557 233.739H161.391V100.174ZM283.826 411.826H161.391V278.261H283.826C320.557 278.261 350.609 308.313 350.609 345.044C350.609 381.774 320.557 411.826 283.826 411.826Z" fill="black"/>
</svg>
