<svg width="512" height="512" viewBox="0 0 512 512" fill="none" xmlns="http://www.w3.org/2000/svg">
<g clip-path="url(#clip0_503_25)">
<path d="M149.333 111.667C149.333 108.905 151.572 106.667 154.333 106.667H443C445.761 106.667 448 108.905 448 111.667V144.333C448 147.095 445.761 149.333 443 149.333H154.333C151.572 149.333 149.333 147.095 149.333 144.333V111.667Z" fill="black"/>
<path d="M149 240C149 237.239 151.239 235 154 235H442.667C445.428 235 447.667 237.239 447.667 240V272.667C447.667 275.428 445.428 277.667 442.667 277.667H154C151.239 277.667 149 275.428 149 272.667V240Z" fill="black"/>
<path d="M150 368C150 365.239 152.239 363 155 363H443.667C446.428 363 448.667 365.239 448.667 368V400.667C448.667 403.428 446.428 405.667 443.667 405.667H155C152.239 405.667 150 403.428 150 400.667V368Z" fill="black"/>
<path d="M85.3333 160C103.006 160 117.333 145.673 117.333 128C117.333 110.327 103.006 96 85.3333 96C67.6601 96 53.3333 110.327 53.3333 128C53.3333 145.673 67.6601 160 85.3333 160Z" fill="black"/>
<path d="M85.3333 288C103.006 288 117.333 273.673 117.333 256C117.333 238.327 103.006 224 85.3333 224C67.6601 224 53.3333 238.327 53.3333 256C53.3333 273.673 67.6601 288 85.3333 288Z" fill="black"/>
<path d="M85 416C102.673 416 117 401.673 117 384C117 366.327 102.673 352 85 352C67.3269 352 53 366.327 53 384C53 401.673 67.3269 416 85 416Z" fill="black"/>
</g>
<defs>
<clipPath id="clip0_503_25">
<rect width="512" height="512" fill="white"/>
</clipPath>
</defs>
</svg>
