<svg width="512" height="450" viewBox="0 0 512 450" fill="none" xmlns="http://www.w3.org/2000/svg">
<g clip-path="url(#clip0_503_36)">
<path d="M106 130.684C106 127.922 108.239 125.684 111 125.684H399.667C402.428 125.684 404.667 127.922 404.667 130.684V158.184C404.667 160.945 402.428 163.184 399.667 163.184H111C108.239 163.184 106 160.945 106 158.184V130.684Z" fill="black"/>
<path d="M106 211.543C106 208.782 108.239 206.543 111 206.543H399.667C402.428 206.543 404.667 208.782 404.667 211.543V239.043C404.667 241.804 402.428 244.043 399.667 244.043H111C108.239 244.043 106 241.804 106 239.043V211.543Z" fill="black"/>
<path d="M107 292.402C107 289.641 109.239 287.402 112 287.402H400.667C403.428 287.402 405.667 289.641 405.667 292.402V319.902C405.667 322.664 403.428 324.902 400.667 324.902H112C109.239 324.902 107 322.664 107 319.902V292.402Z" fill="black"/>
</g>
<defs>
<clipPath id="clip0_503_36">
<rect width="512" height="450" fill="white"/>
</clipPath>
</defs>
</svg>
