<svg width="512" height="512" viewBox="0 0 512 512" fill="none" xmlns="http://www.w3.org/2000/svg">
<path d="M318.844 256H381.187V305.999C381.187 333.578 358.822 355.999 331.312 355.999H325.079C322.621 355.993 320.186 356.474 317.914 357.415C315.642 358.355 313.578 359.736 311.84 361.478C310.102 363.22 308.725 365.29 307.787 367.567C306.849 369.845 306.369 372.286 306.375 374.75V412.25C306.369 414.714 306.849 417.154 307.787 419.432C308.725 421.71 310.102 423.779 311.84 425.521C313.578 427.264 315.642 428.644 317.914 429.585C320.186 430.525 322.621 431.006 325.079 431H331.312C400.202 431 456 375.062 456 306V118.5C456 97.7968 439.245 81 418.594 81H318.844C298.192 81 281.437 97.7968 281.437 118.5V218.5C281.437 239.203 298.192 256 318.844 256ZM94.4062 256H156.75V305.999C156.75 333.578 134.384 355.999 106.875 355.999H100.641C98.1832 355.993 95.7484 356.474 93.4765 357.415C91.2046 358.355 89.1404 359.736 87.4025 361.478C85.6645 363.22 84.2871 365.29 83.3492 367.567C82.4114 369.845 81.9316 372.286 81.9375 374.75V412.25C81.9316 414.714 82.4114 417.154 83.3492 419.432C84.2871 421.71 85.6645 423.779 87.4025 425.521C89.1404 427.264 91.2046 428.644 93.4765 429.585C95.7484 430.525 98.1832 431.006 100.641 431H106.875C175.765 431 231.562 375.062 231.562 306V118.5C231.562 97.7968 214.808 81 194.156 81H94.4062C73.7548 81 57 97.7968 57 118.5V218.5C57 239.203 73.7548 256 94.4062 256Z" fill="black"/>
</svg>
