<svg width="512" height="512" viewBox="0 0 512 512" fill="none" xmlns="http://www.w3.org/2000/svg">
<path d="M421.525 108.168V403.832H449.092C456.708 403.832 462.917 410.485 462.917 418.646V448.186C462.917 456.347 456.708 463 449.092 463H311.175C303.559 463 297.35 456.347 297.35 448.186V418.646C297.35 410.485 303.559 403.832 311.175 403.832H338.742V285.584H173.175V403.832H200.742C208.358 403.832 214.567 410.485 214.567 418.646V448.186C214.567 456.347 208.358 463 200.742 463H62.8248C55.2088 463 49 456.347 49 448.186V418.646C49 410.485 55.2088 403.832 62.8248 403.832H90.3917V108.168H62.8248C55.2088 108.168 49 101.604 49 93.4427V63.8142C49 55.6531 55.2088 49 62.8248 49H200.825C208.441 49 214.65 55.6531 214.65 63.8142V93.354C214.65 101.515 208.441 108.168 200.825 108.168H173.175V226.416H338.742V108.168H311.175C303.559 108.168 297.35 101.515 297.35 93.354V63.8142C297.35 55.6531 303.559 49 311.175 49H449.175C456.791 49 463 55.6531 463 63.8142V93.354C463 101.515 456.791 108.168 449.175 108.168H421.525Z" fill="black"/>
</svg>
