<svg width="512" height="512" viewBox="0 0 512 512" fill="none" xmlns="http://www.w3.org/2000/svg">
<path d="M396.083 78H228.583C221.179 78 214.079 81.1256 208.843 86.6892C203.608 92.2528 200.667 99.7986 200.667 107.667C200.667 115.535 203.608 123.081 208.843 128.644C214.079 134.208 221.179 137.333 228.583 137.333H271.017L181.683 374.667H116.917C109.513 374.667 102.412 377.792 97.1766 383.356C91.9412 388.919 89 396.465 89 404.333C89 412.201 91.9412 419.747 97.1766 425.311C102.412 430.874 109.513 434 116.917 434H284.417C291.821 434 298.921 430.874 304.157 425.311C309.392 419.747 312.333 412.201 312.333 404.333C312.333 396.465 309.392 388.919 304.157 383.356C298.921 377.792 291.821 374.667 284.417 374.667H241.983L331.317 137.333H396.083C403.487 137.333 410.588 134.208 415.823 128.644C421.059 123.081 424 115.535 424 107.667C424 99.7986 421.059 92.2528 415.823 86.6892C410.588 81.1256 403.487 78 396.083 78Z" fill="black"/>
</svg>
