<svg width="512" height="512" viewBox="0 0 512 512" fill="none" xmlns="http://www.w3.org/2000/svg">
<g clip-path="url(#clip0_505_53)">
<path d="M42.6667 357.667C42.6667 360.428 44.9053 362.667 47.6667 362.667H80.3334C83.0948 362.667 85.3334 364.905 85.3334 367.667V368.333C85.3334 371.095 83.0948 373.333 80.3334 373.333H69.0001C66.2387 373.333 64.0001 375.572 64.0001 378.333V389.667C64.0001 392.428 66.2387 394.667 69.0001 394.667H80.3334C83.0948 394.667 85.3334 396.905 85.3334 399.667V400.333C85.3334 403.095 83.0948 405.333 80.3334 405.333H47.6668C44.9053 405.333 42.6667 407.572 42.6667 410.333V421.667C42.6667 424.428 44.9053 426.667 47.6667 426.667H101.667C104.428 426.667 106.667 424.428 106.667 421.667V346.333C106.667 343.572 104.428 341.333 101.667 341.333H47.6667C44.9053 341.333 42.6667 343.572 42.6667 346.333V357.667ZM64.0001 165.667C64.0001 168.428 66.2387 170.667 69.0001 170.667H80.3334C83.0948 170.667 85.3334 168.428 85.3334 165.667V90.3333C85.3334 87.5719 83.0948 85.3333 80.3334 85.3333H47.6668C44.9053 85.3333 42.6667 87.5719 42.6667 90.3333V101.667C42.6667 104.428 44.9053 106.667 47.6667 106.667H59.0001C61.7615 106.667 64.0001 108.905 64.0001 111.667V165.667ZM42.6667 229.667C42.6667 232.428 44.9053 234.667 47.6667 234.667H70.1957C74.4674 234.667 76.772 239.677 73.9919 242.921L43.8705 278.062C43.0937 278.969 42.6667 280.123 42.6667 281.316V293.667C42.6667 296.428 44.9053 298.667 47.6667 298.667H101.667C104.428 298.667 106.667 296.428 106.667 293.667V282.333C106.667 279.572 104.428 277.333 101.667 277.333H79.1378C74.8661 277.333 72.5615 272.323 75.3416 269.079L105.463 233.938C106.24 233.031 106.667 231.877 106.667 230.684V218.333C106.667 215.572 104.428 213.333 101.667 213.333H47.6667C44.9053 213.333 42.6667 215.572 42.6667 218.333V229.667ZM154.333 106.667C151.572 106.667 149.333 108.905 149.333 111.667V144.333C149.333 147.095 151.572 149.333 154.333 149.333H443C445.762 149.333 448 147.095 448 144.333V111.667C448 108.905 445.762 106.667 443 106.667H154.333ZM149.333 400.333C149.333 403.095 151.572 405.333 154.333 405.333H443C445.762 405.333 448 403.095 448 400.333V367.667C448 364.905 445.762 362.667 443 362.667H154.333C151.572 362.667 149.333 364.905 149.333 367.667V400.333ZM149.333 272.333C149.333 275.095 151.572 277.333 154.333 277.333H443C445.762 277.333 448 275.095 448 272.333V239.667C448 236.905 445.762 234.667 443 234.667H154.333C151.572 234.667 149.333 236.905 149.333 239.667V272.333Z" fill="black"/>
</g>
<defs>
<clipPath id="clip0_505_53">
<rect width="512" height="512" fill="white"/>
</clipPath>
</defs>
</svg>
