<svg width="512" height="512" viewBox="0 0 512 512" fill="none" xmlns="http://www.w3.org/2000/svg">
<g clip-path="url(#clip0_503_8)">
<path d="M320.462 180.828C320.462 173.021 319.218 165.97 316.729 159.422C314.489 152.623 310.756 147.083 305.778 142.298C300.8 137.513 294.578 133.987 287.111 131.217C279.644 128.699 270.684 127.188 260.729 127.188C251.022 127.188 242.311 128.195 235.093 130.462C227.876 132.728 221.902 135.75 217.173 139.528C212.444 143.557 208.711 148.09 206.222 153.378C203.733 158.667 202.489 164.207 202.489 169.999C202.489 182.087 208.711 192.161 220.907 200.471C230.364 206.767 240.071 212.559 256 218.099H141.262C140.018 216.085 138.524 213.818 137.529 211.803C131.058 199.716 127.822 185.865 127.822 169.747C127.822 154.386 131.058 140.535 137.778 127.692C144.249 115.1 153.458 104.271 165.404 95.2052C177.351 86.3911 191.538 79.3398 207.716 74.3031C224.142 69.5183 242.311 67 261.973 67C282.133 67 300.302 69.7702 316.978 75.5623C333.404 81.1026 347.591 89.1612 359.04 99.2345C370.738 109.308 379.698 121.396 385.92 135.246C392.142 149.097 395.378 164.207 395.378 180.828H320.462ZM455.111 243.282H56.8889C43.2 243.282 32 254.615 32 268.466C32 282.316 43.2 293.649 56.8889 293.649H271.431C275.911 295.412 281.387 297.175 285.12 298.686C294.329 302.967 301.547 307.248 306.773 311.529C312 315.81 315.484 320.595 317.476 325.883C319.218 330.92 320.213 336.712 320.213 343.26C320.213 349.052 318.969 354.592 316.729 359.881C314.489 364.917 311.004 369.45 306.276 373.228C301.547 377.005 295.822 379.775 288.604 382.042C281.387 384.057 272.924 385.316 263.467 385.316C252.764 385.316 242.809 384.308 234.098 382.042C225.387 379.775 217.671 376.25 211.449 371.465C205.227 366.68 200.249 360.384 196.764 352.578C193.28 344.771 190.542 333.438 190.542 322.106H116.622C116.622 335.957 118.613 350.563 122.596 361.895C126.578 373.228 131.804 383.301 138.773 392.367C145.742 401.181 153.707 408.988 163.164 415.536C172.373 422.083 182.578 427.624 193.529 431.905C204.48 436.186 215.929 439.46 227.876 441.726C239.822 443.741 251.769 445 263.716 445C283.627 445 301.796 442.733 317.973 437.949C334.151 433.164 348.089 426.616 359.538 418.054C370.987 409.492 379.947 398.663 386.169 386.071C392.391 373.48 395.627 359.125 395.627 343.008C395.627 327.898 393.138 314.299 387.911 302.463C386.667 299.693 385.173 296.671 383.68 294.153H455.111C468.8 294.153 480 282.82 480 268.969V268.466C480 254.615 468.8 243.282 455.111 243.282Z" fill="black"/>
</g>
<defs>
<clipPath id="clip0_503_8">
<rect width="512" height="512" fill="white"/>
</clipPath>
</defs>
</svg>
