<svg width="512" height="512" viewBox="0 0 512 512" fill="none" xmlns="http://www.w3.org/2000/svg">
<g clip-path="url(#clip0_517_6)">
<path d="M272.853 361.6C337.493 353.28 384 295.253 384 230.187V90.6667C384 75.9467 372.053 64 357.333 64C342.613 64 330.666 75.9467 330.666 90.6667V232.533C330.666 268.16 306.56 300.587 271.573 307.627C223.573 317.653 181.333 280.96 181.333 234.667V90.6667C181.333 75.9467 169.387 64 154.667 64C139.947 64 128 75.9467 128 90.6667V234.667C128 310.827 194.773 371.627 272.853 361.6ZM106.667 426.667C106.667 438.4 116.267 448 128 448H384C395.733 448 405.333 438.4 405.333 426.667C405.333 414.933 395.733 405.333 384 405.333H128C116.267 405.333 106.667 414.933 106.667 426.667Z" fill="black"/>
</g>
<defs>
<clipPath id="clip0_517_6">
<rect width="512" height="512" fill="white"/>
</clipPath>
</defs>
</svg>
